<?xml version="1.0" encoding="utf-8"?>
<!-- Generator: Adobe Illustrator 25.2.3, SVG Export Plug-In . SVG Version: 6.00 Build 0)  -->
<svg version="1.1" id="Layer_1" xmlns="http://www.w3.org/2000/svg" xmlns:xlink="http://www.w3.org/1999/xlink" x="0px" y="0px"
	 viewBox="0 0 194 48" style="enable-background:new 0 0 194 48;" xml:space="preserve">
<style type="text/css">
	.st0{fill:#0A4DAA;}
	.st1{fill:#FDDD01;}
	.st2{enable-background:new    ;}
	.st3{fill:#033C90;}
</style>
<g id="Group_4131" transform="translate(-166.022 -753)">
	<g id="Group_4129" transform="translate(0 10)">
		<circle id="Ellipse_128" class="st0" cx="336" cy="767" r="24"/>
		<g id="Group_4132" transform="translate(37.822 52.822)">
			<path id="Union_4" class="st1" d="M297.2,725.2l-0.2-0.3v-0.5l-0.4-0.1l-0.4-0.1l-0.4-0.1l-0.4-0.1h5.6l-0.4,0.1l-0.4,0.1
				l-0.4,0.1l-0.4,0.1v0.5l-0.2,0.3L297.2,725.2z M301.2,724.5l-0.1-0.3l-0.1-0.1h2.1l-1.6,0.7L301.2,724.5z M293.3,724.1L293,724
				l-0.1-0.4l0.1-0.3l0-0.1l-0.4-0.2l-0.3-0.2l-0.3-0.2l-0.3-0.2l-0.1,0.1l-0.3,0.3l-0.4,0.1l-0.2-0.2l-1.1-1.1l-0.2-0.2l0.1-0.4
				l0.3-0.3l0.1-0.1l-0.2-0.3l-0.2-0.3l-0.2-0.3l-0.2-0.3h6.6l0.2,0.1l2.2,0.4h8.6l-0.1,0.1l-0.2,0.3l-0.2,0.3l0.4,0.4l0.1,0.4
				l-0.2,0.2l-0.8,0.8h-1.1l-0.3,0.2l-0.3,0.2l-0.3,0.2l-0.3,0.2l0,0.1l0.1,0.3l-0.1,0.4l-0.3,0.1h-7.7l-0.2,0.5l-0.3,0.2
				L293.3,724.1z M304.9,722.6l-0.4-0.4h1.1l-0.2,0.2l-0.2,0.2L304.9,722.6z M298.2,719.7l2.2-0.4l1.8-1.2l1.2-1.8l0.4-2.2l-0.4-2.2
				l-1.2-1.8l-1.8-1.2l-2.2-0.4l0,0l-2.2,0.4l-0.2,0.1l0,0l-1.6,1.1l-1.2,1.8l-0.4,2.2l0.4,2.2l1.2,1.8l1.6,1.1h-6.6l-0.1,0.1
				l-0.3,0.1l-0.4-0.1l-0.1-0.2l-0.6-1.4l-0.1-0.2l0.2-0.3l0.3-0.1l0.1,0l-0.1-0.4l-0.1-0.4l-0.1-0.4l-0.1-0.4h-0.5l-0.3-0.2v-2
				l0.3-0.2h0.5l0.1-0.4l0.1-0.4l0.1-0.4l0.1-0.4l-0.5-0.2l-0.2-0.3l0.1-0.2l0.6-1.4l0.1-0.2l0.4-0.1l0.4,0.2l0.2-0.3l0.2-0.3
				l0.2-0.3l0.2-0.3l-0.1-0.1l-0.3-0.3l-0.1-0.4l0.2-0.2l1.2-1.2l0.4,0.1l0.3,0.3l0.1,0.1l0.3-0.2l0.3-0.2l0.3-0.2l0.3-0.2l0-0.1
				l-0.1-0.3l0.1-0.4l0.2-0.1l1.6-0.7l0.3,0.2l0.2,0.5l0.4-0.1l0.4-0.1l0.4-0.1l0.4-0.1v-0.5l0.2-0.3h2l0.2,0.3v0.5l0.4,0.1l0.4,0.1
				l0.4,0.1l0.4,0.1l0,0l0.2-0.5l0.3-0.2l1.6,0.7l0,0l0,0l0.2,0.1l0.1,0.4l-0.1,0.3l0,0.1l0.3,0.2l0.3,0.2l0.3,0.2l0.3,0.2l0,0
				l0.4-0.4l0.4-0.1l0.4,0.4l0,0l1,1l-0.1,0.4l-0.4,0.4l0.2,0.3l0.2,0.3l0.1,0.1l0,0l0.1,0.2l0.2,0.3h0.9l0,0.1l0.6,1.4l0.1,0.2
				l-0.2,0.3l-0.5,0.2l0.1,0.4l0.1,0.4l0.1,0.4l0.1,0.4h0.5l0.3,0.2v2l-0.3,0.2h-0.5l-0.1,0.4l-0.1,0.4l-0.1,0.4l-0.1,0.4l0.1,0
				l0.3,0.1l0.2,0.3l-0.1,0.2l-0.6,1.4l0,0.1h-0.9l-0.2,0.3l-0.1,0.2L298.2,719.7z M307.3,719.3l-0.1-0.1h0.9l0,0.1l-0.4,0.1
				L307.3,719.3z"/>
			<circle id="Ellipse_2" class="st1" cx="298.2" cy="714.2" r="3.1"/>
		</g>
	</g>
	<g id="Group_4130" transform="translate(0 3)">
		<path id="Path_5170" class="st1" d="M184.5,756h96.4c10.2,0,25.1,16.5,25.1,16.5S291.1,789,280.9,789h-96.4
			c-10.2,0-18.5-7.4-18.5-16.5S174.3,756,184.5,756z"/>
	</g>
	<g id="Group_4133" transform="translate(4.67 1.67)">
		<g id="Union_38" transform="translate(336.33 762.33)">
			<path class="st1" d="M5,10.8c-1.1,0-2-0.9-2-2V7H1.3c-1.1,0-2-0.9-2-2s0.9-2,2-2H3V1.3c0-1.1,0.9-2,2-2s2,0.9,2,2V3h1.7
				c1.1,0,2,0.9,2,2s-0.9,2-2,2H7v1.8C7,9.9,6.1,10.8,5,10.8z"/>
			<path class="st0" d="M5,10c0.7,0,1.3-0.6,1.3-1.3V6.3h2.5C9.4,6.3,10,5.7,10,5S9.4,3.8,8.7,3.8H6.3V1.3C6.3,0.6,5.7,0,5,0
				C4.3,0,3.8,0.6,3.8,1.3v2.5H1.3C0.6,3.8,0,4.3,0,5s0.6,1.3,1.3,1.3h2.5v2.5C3.8,9.4,4.3,10,5,10 M5,11.5c-1.5,0-2.8-1.2-2.8-2.8
				v-1h-1c-1.5,0-2.8-1.2-2.8-2.8s1.2-2.8,2.8-2.8h1v-1c0-1.5,1.2-2.8,2.8-2.8s2.8,1.2,2.8,2.8v1h1c1.5,0,2.8,1.2,2.8,2.8
				s-1.2,2.8-2.8,2.8h-1v1C7.8,10.3,6.5,11.5,5,11.5z"/>
		</g>
	</g>
</g>
</svg>
